<svg width="782" height="165" viewBox="0 0 782 165" fill="none" xmlns="http://www.w3.org/2000/svg">
<path d="M79.0306 75.2398C79.395 79.4052 78.9758 83.4251 77.7729 87.2993C76.6549 91.1661 74.9733 94.9538 72.728 98.6622C70.4827 102.371 67.8474 106.028 64.8221 109.633C61.7894 113.153 58.5829 116.646 55.2027 120.111C51.9075 123.569 48.5273 127.034 45.0621 130.507C41.682 133.972 38.5143 137.418 35.5591 140.846C38.3974 139.998 41.1915 139.625 43.9415 139.727C46.6916 139.829 49.5191 139.839 52.4243 139.756C55.3295 139.673 58.2973 139.328 61.3279 138.72C64.351 138.027 67.5585 136.505 70.9504 134.152C72.081 133.368 72.8036 133.305 73.1181 133.963C73.5176 134.613 73.6457 135.587 73.5022 136.884C73.3513 138.097 72.9953 139.413 72.4342 140.832C71.8732 142.252 71.2361 143.293 70.5231 143.955C67.128 147.25 63.7473 149.73 60.381 151.395C57.0072 152.975 53.6387 154.126 50.2756 154.849C46.905 155.486 43.4695 155.873 39.9693 156.008C36.4691 156.142 32.895 156.412 29.2471 156.817C26.3642 157.155 23.45 157.624 20.5045 158.224C17.6439 158.817 14.7318 159.8 11.7682 161.173C10.8629 161.595 10.1605 161.399 9.66107 160.587C9.15422 159.689 9.28493 158.735 10.0532 157.725C12.8787 153.795 16.2494 149.731 20.1651 145.534C24.0809 141.337 28.0779 137.089 32.1562 132.792C36.3121 128.403 40.3405 124.024 44.2414 119.657C48.1423 115.29 51.4518 111.017 54.17 106.839C56.9658 102.568 58.9189 98.457 60.0294 94.5052C61.2174 90.4609 61.184 86.652 59.9291 83.0784C59.3776 81.6705 58.5823 80.4124 57.543 79.304C56.5888 78.1883 55.3631 77.3961 53.8659 76.9275C52.4463 76.3664 50.8051 76.2102 48.9423 76.4588C47.0721 76.6224 45.0728 77.2685 42.9444 78.3969C41.071 79.5031 39.3236 81.0694 37.702 83.0957C36.073 85.0371 34.529 86.971 33.07 88.8975C31.6886 90.7316 30.4087 92.2569 29.2303 93.4736C28.0518 94.6903 26.969 95.042 25.9819 94.5287C24.0075 93.5022 23.2675 91.8966 23.7616 89.7119C24.3407 87.5197 25.6313 85.1369 27.6333 82.5633C29.0997 80.7218 30.8211 78.858 32.7976 76.9719C34.8591 75.0783 36.9742 73.3086 39.143 71.6626C41.3894 69.9242 43.6581 68.4409 45.9491 67.2125C48.3176 65.8917 50.5459 64.9258 52.634 64.3149C55.7123 63.2746 58.7503 62.7518 61.748 62.7465C64.8231 62.6488 67.6029 63.0909 70.0873 64.0728C72.5642 64.9696 74.6145 66.375 76.2381 68.2887C77.8543 70.1175 78.7852 72.4345 79.0306 75.2398ZM152.687 82.4155C152.025 88.5552 150.899 94.7784 149.31 101.085C147.797 107.299 145.575 113.233 142.644 118.886C139.797 124.531 136.14 129.734 131.674 134.493C127.286 139.16 121.887 143.059 115.48 146.189C113.096 147.34 110.521 148.25 107.753 148.921C104.985 149.591 102.272 149.914 99.6141 149.89C96.9565 149.865 94.5205 149.436 92.306 148.602C90.0841 147.683 88.3351 146.294 87.0589 144.435C84.3143 140.478 82.9775 135.97 83.0488 130.909C83.1126 125.764 83.9766 120.463 85.6407 115.007C87.3823 109.458 89.5565 103.957 92.1631 98.5038C94.8548 93.0431 97.3674 87.9835 99.7009 83.325C101.163 80.456 102.976 77.6848 105.141 75.0113C107.383 72.2453 109.783 69.8083 112.339 67.7001C114.888 65.5069 117.514 63.6925 120.215 62.257C123.001 60.814 125.708 59.9347 128.336 59.6191C131.219 59.2813 134.154 59.5385 137.141 60.3907C140.213 61.2355 142.947 62.6238 145.343 64.5557C147.824 66.4801 149.755 68.9666 151.135 72.0152C152.593 74.9714 153.11 78.4382 152.687 82.4155ZM136.423 87.4361C135.834 85.6031 134.427 83.7133 132.201 81.7666C130.052 79.7274 127.531 78.3205 124.636 77.5458C121.819 76.6787 118.871 76.7653 115.793 77.8055C112.8 78.8383 110.16 81.4677 107.874 85.6937C106.032 89.1099 104.424 92.7626 103.051 96.6518C101.671 100.456 100.68 104.312 100.08 108.219C99.4721 112.041 99.3318 115.822 99.6591 119.563C100.064 123.211 101.088 126.59 102.73 129.701C103.974 132.162 105.518 133.655 107.362 134.179C109.285 134.61 111.247 134.524 113.25 133.921C115.246 133.232 117.212 132.204 119.148 130.835C121.161 129.374 122.924 127.978 124.435 126.646C127.062 124.361 129.311 121.68 131.183 118.603C133.133 115.435 134.64 112.091 135.702 108.571C136.85 105.045 137.48 101.477 137.593 97.8699C137.79 94.2549 137.401 90.777 136.423 87.4361ZM219.743 62.9291C220.107 67.0945 219.688 71.1143 218.485 74.9886C217.367 78.8554 215.686 82.643 213.44 86.3515C211.195 90.06 208.56 93.7169 205.535 97.3223C202.502 100.843 199.295 104.335 195.915 107.801C192.62 111.258 189.24 114.723 185.775 118.196C182.394 121.661 179.227 125.108 176.272 128.535C179.11 127.688 181.904 127.315 184.654 127.417C187.404 127.519 190.232 127.528 193.137 127.445C196.042 127.363 199.01 127.017 202.04 126.41C205.064 125.717 208.271 124.194 211.663 121.841C212.793 121.057 213.516 120.994 213.831 121.652C214.23 122.302 214.358 123.276 214.215 124.573C214.064 125.786 213.708 127.102 213.147 128.522C212.586 129.941 211.949 130.982 211.236 131.644C207.841 134.939 204.46 137.419 201.093 139.084C197.72 140.664 194.351 141.816 190.988 142.538C187.617 143.176 184.182 143.562 180.682 143.697C177.182 143.832 173.607 144.102 169.96 144.506C167.077 144.844 164.163 145.313 161.217 145.914C158.356 146.507 155.444 147.49 152.481 148.862C151.575 149.284 150.873 149.089 150.374 148.276C149.867 147.378 149.997 146.424 150.766 145.415C153.591 141.484 156.962 137.42 160.878 133.223C164.793 129.026 168.79 124.779 172.869 120.481C177.025 116.092 181.053 111.713 184.954 107.346C188.855 102.979 192.164 98.7062 194.883 94.528C197.678 90.2575 199.631 86.1463 200.742 82.1944C201.93 78.1502 201.896 74.3413 200.642 70.7677C200.09 69.3597 199.295 68.1016 198.256 66.9933C197.301 65.8775 196.076 65.0854 194.578 64.6167C193.159 64.0557 191.518 63.8994 189.655 64.1481C187.785 64.3117 185.785 64.9577 183.657 66.0862C181.784 67.1923 180.036 68.7586 178.414 70.785C176.785 72.7263 175.242 74.6603 173.783 76.5868C172.401 78.4208 171.121 79.9462 169.943 81.1628C168.764 82.3795 167.682 82.7312 166.694 82.218C164.72 81.1915 163.98 79.5859 164.474 77.4011C165.053 75.209 166.344 72.8261 168.346 70.2525C169.812 68.411 171.534 66.5472 173.51 64.6611C175.572 62.7676 177.687 60.9978 179.856 59.3519C182.102 57.6135 184.371 56.1301 186.662 54.9018C189.03 53.581 191.258 52.6151 193.346 52.0041C196.425 50.9639 199.463 50.4411 202.46 50.4358C205.536 50.3381 208.315 50.7802 210.8 51.762C213.277 52.6589 215.327 54.0642 216.951 55.978C218.567 57.8068 219.498 60.1238 219.743 62.9291ZM284.284 48.1597C284.729 49.3201 284.67 50.6101 284.109 52.0297C283.541 53.3643 282.675 54.725 281.511 56.1117C280.347 57.4984 279.01 58.8574 277.499 60.1889C276.073 61.5129 274.675 62.6631 273.304 63.6396C272.413 64.2315 271.586 64.5609 270.82 64.6278C270.048 64.6098 269.307 64.4605 268.597 64.1799C267.972 63.8919 267.344 63.5615 266.711 63.1885C266.157 62.7231 265.613 62.3851 265.081 62.1747C262.951 61.3331 260.833 60.619 258.726 60.0325C256.619 59.4459 253.941 59.6802 250.693 60.7353C248.262 64.2886 246.516 67.8249 245.453 71.3443C244.383 74.7786 243.683 78.5232 243.352 82.5781C245.285 82.1521 247.431 81.7074 249.789 81.2441C252.139 80.6958 254.508 80.3601 256.896 80.2368C259.361 80.0212 261.717 80.0292 263.965 80.2608C266.297 80.4851 268.362 81.0754 270.159 82.0317C272.033 82.8957 273.562 84.2181 274.746 85.999C276.015 87.7725 276.776 90.1044 277.028 92.9947C277.49 98.2653 276.638 103.222 274.475 107.866C272.389 112.417 269.586 116.603 266.065 120.423C262.622 124.15 258.76 127.486 254.477 130.431C250.195 133.375 246.173 135.868 242.411 137.911C240.283 139.039 237.927 140.016 235.344 140.842C232.846 141.66 230.403 142.131 228.015 142.254C225.712 142.37 223.716 142.073 222.027 141.364C220.252 140.663 219.109 139.35 218.598 137.424C218.347 136.504 218.385 135.473 218.713 134.331C219.042 133.188 219.547 132.116 220.231 131.114C220.906 130.027 221.725 129.099 222.685 128.329C223.561 127.568 224.463 127.103 225.39 126.936C226.233 126.777 227.175 126.78 228.218 126.946C229.338 127.019 230.419 127.139 231.461 127.305C232.589 127.463 233.674 127.625 234.716 127.791C235.751 127.872 236.736 127.871 237.671 127.789C239.719 127.696 241.748 127.39 243.758 126.871C245.846 126.26 247.827 125.402 249.701 124.296C251.566 123.104 253.275 121.584 254.827 119.735C256.378 117.887 257.672 115.546 258.709 112.714C259.466 110.592 259.812 108.678 259.749 106.97C259.678 105.177 259.285 103.627 258.571 102.319C257.849 100.926 256.888 99.725 255.686 98.7166C254.477 97.6232 253.151 96.6684 251.709 95.8523C250.722 95.3391 249.63 95.092 248.432 95.1111C247.312 95.0378 246.118 95.0994 244.851 95.296C243.668 95.4851 242.45 95.763 241.197 96.1295C240.022 96.4037 238.928 96.6279 237.915 96.8021C237.073 96.9615 236.199 97.2521 235.293 97.674C234.388 98.0958 233.437 98.4789 232.439 98.8231C231.526 99.16 230.606 99.4118 229.678 99.5786C228.835 99.738 228.052 99.5924 227.327 99.1419C226.702 98.8539 226.441 98.3199 226.544 97.54C226.733 96.7526 227.041 95.869 227.469 94.8893C227.897 93.9096 228.368 92.9262 228.881 91.939C229.472 90.8594 229.854 89.8409 230.027 88.8835C230.842 85.4715 231.735 81.967 232.705 78.3701C233.675 74.7732 234.912 71.2815 236.414 67.895C237.909 64.4234 239.732 61.2659 241.882 58.4224C244.109 55.4865 246.809 53.0659 249.983 51.1607C252.507 49.655 255.556 48.2747 259.129 47.0198C262.703 45.7649 266.182 44.9037 269.568 44.4362C273.038 43.9612 276.125 43.991 278.827 44.5255C281.614 45.0526 283.433 46.264 284.284 48.1597ZM412.929 79.1776C410.192 82.1582 407.07 84.6585 403.563 86.6784C400.142 88.691 396.764 90.2285 393.431 91.2911C392.681 91.528 391.792 91.6486 390.764 91.6529C389.729 91.5721 388.687 91.4063 387.637 91.1555C386.665 90.8123 385.731 90.4229 384.837 89.9872C383.934 89.4665 383.202 88.9309 382.64 88.3805C380.229 93.1314 377.535 98.0783 374.559 103.221C371.582 108.364 368.364 113.186 364.903 117.686C363.824 119.065 362.757 120.572 361.701 122.206C360.637 123.755 359.527 125.266 358.371 126.738C357.3 128.202 356.125 129.461 354.847 130.515C353.661 131.647 352.314 132.407 350.806 132.796C349.298 133.185 348.041 132.524 347.035 130.813C346.021 129.017 345.137 126.739 344.381 123.978C343.711 121.21 343.149 118.219 342.696 115.003C342.236 111.703 341.806 108.742 341.406 106.122C340.756 101.639 340.292 97.3107 340.013 93.1378C339.818 88.9575 339.666 84.7735 339.557 80.5858C339.508 79.0482 339.93 77.5122 340.824 75.9778C341.795 74.351 342.951 72.8793 344.292 71.5627C345.634 70.2462 347.086 69.2197 348.649 68.4833C350.212 67.747 351.6 67.4542 352.812 67.6051C353.592 67.7082 354.147 68.1736 354.476 69.0014C354.883 69.7367 355.174 70.6107 355.348 71.6234C355.522 72.6361 355.573 73.7024 355.499 74.8224C355.511 75.9349 355.511 76.92 355.501 77.7775C355.432 79.925 355.435 82.4089 355.51 85.229C355.578 87.9642 355.781 90.7732 356.119 93.656C356.449 96.4539 356.942 99.1518 357.598 101.75C358.254 104.348 359.127 106.499 360.218 108.202C362.147 106.748 364.066 104.696 365.976 102.045C367.885 99.3937 369.567 96.5911 371.022 93.6371C372.554 90.5906 373.758 87.7014 374.632 84.9694C375.585 82.145 375.99 79.9253 375.849 78.3101C375.035 76.8394 374.631 75.1616 374.637 73.2765C374.721 71.299 375.203 69.458 376.081 67.7536C376.953 65.9642 378.19 64.4426 379.794 63.1887C381.482 61.9274 383.52 61.2352 385.908 61.1119C386.843 61.0301 387.727 61.3383 388.559 62.0364C389.391 62.7346 390.025 63.6213 390.462 64.6967C390.898 65.772 391.138 67.036 391.179 68.4886C391.213 69.8562 390.903 71.211 390.25 72.5531C390.346 73.6582 390.439 74.7208 390.529 75.7409C390.703 76.7535 390.993 77.6275 391.4 78.3629C391.807 79.0982 392.331 79.6949 392.97 80.1528C393.603 80.5258 394.429 80.6677 395.449 80.5784C396.802 80.3744 398.267 79.9893 399.845 79.4229C401.415 78.7716 402.936 78.0389 404.407 77.225C405.962 76.4036 407.387 75.5509 408.68 74.6668C409.973 73.7827 411.058 72.9597 411.933 72.1979C412.971 71.3361 413.834 70.918 414.522 70.9435C415.294 70.9616 415.799 71.3457 416.036 72.0959C416.265 72.7611 416.138 73.7573 415.655 75.0845C415.249 76.3192 414.34 77.6836 412.929 79.1776ZM449.726 97.159C450.45 97.6096 450.726 98.3136 450.553 99.271C450.465 100.221 450.125 101.236 449.534 102.315C448.936 103.31 448.21 104.316 447.357 105.333C446.589 106.342 445.929 107.128 445.379 107.69C441.371 111.81 437.067 115.484 432.466 118.713C427.944 121.85 423.44 124.214 418.953 125.806C416.37 126.632 413.857 127.28 411.414 127.751C409.063 128.299 406.814 128.538 404.667 128.469C402.527 128.485 400.523 128.104 398.656 127.325C396.797 126.631 395.155 125.49 393.731 123.901C391.361 121.282 390.012 118.102 389.684 114.361C389.357 110.621 389.621 106.786 390.477 102.857C391.417 98.9196 392.712 95.123 394.363 91.4665C396.098 87.8027 397.797 84.6988 399.459 82.155C400.895 79.9735 402.506 77.8196 404.29 75.6933C406.159 73.5596 408.124 71.546 410.186 69.6525C412.332 67.7515 414.54 66.0593 416.808 64.5759C419.07 63.0076 421.403 61.7755 423.809 60.8797C426.547 59.8692 428.994 59.441 431.149 59.5951C433.381 59.6568 435.269 60.177 436.81 61.1556C438.345 62.0493 439.484 63.3202 440.228 64.9683C440.972 66.6164 441.259 68.433 441.09 70.4179C440.792 73.8703 439.769 77.3434 438.018 80.8373C436.261 84.2461 434.056 87.4371 431.404 90.4102C427.658 94.5926 423.705 98.3648 419.545 101.727C415.377 105.004 411.378 107.752 407.546 109.972C408.271 112.393 409.305 113.93 410.647 114.583C411.99 115.237 414.4 115.369 417.877 114.979C419.748 114.815 421.758 114.296 423.909 113.423C426.052 112.465 428.142 111.382 430.178 110.176C432.291 108.878 434.274 107.548 436.125 106.187C437.968 104.741 439.526 103.448 440.796 102.309C441.347 101.747 442.017 101.088 442.808 100.334C443.599 99.5796 444.397 98.9101 445.202 98.3257C446.007 97.7413 446.785 97.3306 447.536 97.0936C448.363 96.7642 449.093 96.786 449.726 97.159ZM424.641 82.1361C425.069 81.1564 425.397 80.0141 425.626 78.7092C425.854 77.4044 425.839 76.2493 425.58 75.2441C425.405 74.2314 424.921 73.5885 424.126 73.3154C423.324 72.9573 422.064 73.2389 420.345 74.1602C418.139 75.3811 416.109 77.1434 414.255 79.4471C412.478 81.6584 410.929 84.0211 409.607 86.5352C408.37 89.0418 407.388 91.5262 406.661 93.9883C406.019 96.4429 405.777 98.5628 405.933 100.348C407.396 99.449 409.011 98.3227 410.777 96.9689C412.628 95.6077 414.429 94.1653 416.18 92.6415C418.009 91.0253 419.66 89.339 421.134 87.5825C422.686 85.7336 423.854 83.9181 424.641 82.1361ZM539.39 64.5161C538.459 65.6254 536.881 67.1768 534.657 69.1702C532.518 71.1562 530.132 73.2495 527.497 75.4501C524.948 77.6433 522.349 79.7552 519.7 81.7859C517.128 83.724 514.945 85.2 513.149 86.2137C510.378 87.8267 507.718 88.2735 505.171 87.554C502.624 86.8346 500.772 85.2407 499.613 82.7723C498.233 79.7236 497.299 77.3641 496.81 75.6937C496.314 73.9382 495.709 72.4065 494.994 71.0984C494.28 69.7903 492.843 70.0018 490.681 71.7327C488.52 73.4637 486.566 76.5899 484.82 81.1112C482.639 86.5273 480.742 92.2611 479.13 98.3126C477.51 104.279 475.946 109.898 474.437 115.17C473.74 117.972 472.389 120.146 470.382 121.692C468.376 123.238 466.292 123.892 464.129 123.652C463.349 123.549 462.802 123.169 462.488 122.511C462.173 121.853 461.971 121.015 461.882 119.994C461.878 118.967 461.909 117.851 461.975 116.646C462.125 115.433 462.238 114.267 462.311 113.147C462.568 110.212 462.801 107.493 463.011 104.991C463.22 102.489 463.444 100.156 463.683 97.9937C463.915 95.7463 464.154 93.5839 464.401 91.5065C464.647 89.4291 464.936 87.348 465.268 85.2632C463.606 87.807 461.848 90.2308 459.994 92.5345C458.132 94.7532 456.259 96.8444 454.375 98.8081C452.491 100.772 450.638 102.604 448.817 104.305C447.073 105.914 445.492 107.423 444.073 108.832C442.888 109.964 441.82 110.485 440.87 110.397C439.92 110.309 439.199 109.901 438.707 109.173C438.207 108.36 438.037 107.39 438.195 106.263C438.268 105.143 438.739 104.159 439.607 103.312C442.925 100.11 445.81 96.8592 448.262 93.5609C450.715 90.2626 452.916 87.0291 454.866 83.8604C456.894 80.5993 458.716 77.4418 460.333 74.3878C461.943 71.2489 463.564 68.2375 465.196 65.3536C466.821 62.3847 468.419 60.5746 469.989 59.9232C471.56 59.2719 472.981 59.3617 474.253 60.1926C475.603 60.9312 476.78 62.1558 477.787 63.8666C478.793 65.5775 479.629 67.3031 480.295 69.0437C481.714 67.6347 483.075 66.0594 484.379 64.3178C485.683 62.5762 487.223 60.5998 489 58.3885C490.924 55.9073 492.851 53.9399 494.779 52.4863C496.786 50.9403 498.585 49.9691 500.178 49.5727C501.856 49.1689 503.285 49.3438 504.464 50.0972C505.644 50.8506 506.489 52.19 507 54.1154C507.419 55.9633 507.926 57.8463 508.522 59.7643C509.203 61.6748 509.916 63.4542 510.659 65.1023C511.481 66.658 512.326 67.9974 513.195 69.1206C514.142 70.1513 515.179 70.7459 516.307 70.9042C517.349 71.07 518.811 70.6423 520.691 69.6211C522.657 68.5926 524.605 67.3515 526.533 65.8978C528.547 64.4368 530.391 62.9906 532.064 61.5593C533.738 60.128 534.892 59.1275 535.528 58.558C537.271 56.9492 538.692 56.054 539.79 55.8723C540.973 55.6832 541.725 55.96 542.047 56.7027C542.454 57.4381 542.462 58.5081 542.071 59.9129C541.68 61.3176 540.786 62.852 539.39 64.5161ZM581.051 91.58C579.33 93.4438 577.233 95.4261 574.761 97.5268C572.367 99.5351 569.842 101.512 567.185 103.458C564.521 105.318 561.846 107.051 559.16 108.657C556.474 110.262 554.059 111.545 551.916 112.503C547.389 114.612 543.17 115.838 539.26 116.18C535.35 116.522 531.982 116.217 529.158 115.265C527.831 114.781 526.392 114.008 524.843 112.944C523.379 111.873 521.946 110.671 520.544 109.337C519.135 107.918 517.769 106.496 516.445 105.07C515.198 103.552 514.094 102.192 513.133 100.991C512.527 101.901 511.748 102.783 510.795 103.637C509.841 104.491 508.799 105.311 507.669 106.095C506.623 106.872 505.574 107.606 504.521 108.298C503.375 108.912 502.4 109.511 501.594 110.096C499.728 111.287 497.84 112.223 495.93 112.904C494.012 113.5 492.267 113.139 490.695 111.82C489.586 110.889 489.168 110.026 489.441 109.232C489.707 108.352 490.277 107.531 491.153 106.769C492.021 105.922 493.028 105.192 494.173 104.577C495.319 103.963 496.259 103.453 496.994 103.046C499.611 101.618 502.426 99.5296 505.441 96.7817C508.455 94.0338 511.331 91.1696 514.069 88.189C516.883 85.116 519.373 82.2427 521.538 79.5692C523.702 76.8957 525.239 74.8768 526.147 73.5124C527.359 71.6933 528.973 69.5819 530.99 67.1783C533.092 64.7673 535.282 62.3913 537.562 60.0504C539.833 57.6245 542.035 55.376 544.167 53.305C546.298 51.2341 548.085 49.6216 549.526 48.4676C550.726 47.5059 551.846 46.5942 552.884 45.7325C554.007 44.8633 555.103 44.1678 556.171 43.6461C557.239 43.1244 558.329 42.8577 559.441 42.846C560.639 42.8269 561.959 43.2254 563.401 44.0415C564.303 44.5621 564.706 45.255 564.61 46.1199C564.592 46.8925 564.33 47.8148 563.825 48.887C563.396 49.8667 562.887 50.8963 562.296 51.9759C561.783 52.9631 561.443 53.9779 561.277 55.0203C560.817 58.5726 560.461 62.33 560.208 66.2924C560.032 70.1624 559.772 74.0399 559.427 77.9248C559.081 81.8096 558.605 85.6632 557.997 89.4854C557.381 93.2225 556.443 96.6882 555.18 99.8824C558.196 99.1046 561.693 97.4709 565.673 94.9813C569.645 92.4066 573.515 89.1556 577.283 85.2282C578.539 83.9191 579.603 83.3549 580.476 83.5356C581.348 83.7162 581.953 84.2629 582.29 85.1757C582.626 86.0885 582.681 87.1973 582.452 88.5022C582.301 89.7146 581.834 90.7406 581.051 91.58ZM546.008 64.0656C544.271 65.7593 542.317 67.9005 540.145 70.4889C538.051 72.985 535.96 75.5235 533.873 78.1046C531.871 80.6782 530.032 83.1519 528.355 85.5258C526.671 87.8146 525.455 89.5913 524.71 90.8558C525.216 91.7537 525.908 92.8067 526.785 94.0149C527.661 95.2231 528.616 96.3388 529.647 97.3621C530.764 98.378 531.986 99.1277 533.313 99.6112C534.633 100.01 535.989 99.8482 537.383 99.1267C539.844 97.8835 541.643 95.9272 542.78 93.258C543.994 90.4963 544.843 87.4668 545.325 84.1695C545.8 80.7873 546.013 77.3423 545.963 73.8346C545.998 70.3195 546.013 67.0632 546.008 64.0656ZM620.377 14.3868C620.932 14.8522 621.246 15.51 621.32 16.3601C621.472 17.1177 621.423 18.0215 621.172 19.0713C621.006 20.1137 620.717 21.2098 620.303 22.3596C619.968 23.4168 619.582 24.3928 619.146 25.2875C618.563 26.4522 617.856 27.6704 617.025 28.9424C616.186 30.1293 615.252 31.1961 614.221 32.1429C613.268 32.9972 612.254 33.6427 611.178 34.0795C610.18 34.4237 609.192 34.3818 608.212 33.9535C607.317 33.5178 606.698 32.8011 606.353 31.8033C606.009 30.8055 605.87 29.7041 605.936 28.4991C606.079 27.2017 606.354 25.9356 606.76 24.7009C607.158 23.3811 607.696 22.1777 608.371 21.0907C608.892 20.1885 609.664 19.2216 610.687 18.1898C611.796 17.1506 612.919 16.2814 614.057 15.5822C615.188 14.798 616.298 14.2725 617.388 14.0058C618.563 13.7317 619.56 13.8587 620.377 14.3868ZM626.986 88.4607C625.187 90.4169 623.137 92.438 620.835 94.5238C618.533 96.6097 616.178 98.5718 613.769 100.41C611.438 102.156 609.138 103.77 606.869 105.254C604.685 106.73 602.858 107.875 601.388 108.689C598.446 110.317 595.955 111.22 593.915 111.398C591.882 111.662 590.219 111.251 588.925 110.165C587.638 109.164 586.732 107.615 586.206 105.52C585.672 103.339 585.527 100.697 585.769 97.5917C586.077 93.2818 586.478 89.0494 586.971 84.8946C585.164 86.7659 583.277 88.687 581.308 90.6581C579.424 92.6218 578.055 94.1121 577.202 95.129C576.178 96.1608 575.19 97.1039 574.237 97.9582C573.284 98.8125 571.815 99.1552 569.83 98.9862C569.397 98.9384 569.074 98.6669 568.859 98.1717C568.637 97.5915 568.539 96.9577 568.564 96.2702C568.497 95.5051 568.562 94.7714 568.757 94.069C568.868 93.374 569.117 92.7954 569.505 92.3332C570.916 90.8392 572.563 89.1104 574.447 87.1467C576.332 85.183 578.204 83.0918 580.066 80.8731C582.013 78.647 583.91 76.3396 585.756 73.9508C587.681 71.4697 589.393 69.0071 590.892 66.5631C591.716 65.2062 592.574 63.7605 593.468 62.2261C594.362 60.6917 595.259 59.1998 596.16 57.7505C597.139 56.2086 598.086 54.798 599.002 53.5187C599.911 52.1543 600.749 50.9674 601.517 49.9579C601.983 49.4032 602.587 48.9649 603.33 48.6429C604.065 48.236 604.815 47.999 605.58 47.9321C606.338 47.7801 607.025 47.8056 607.643 48.0086C608.253 48.1266 608.7 48.3444 608.985 48.6621C609.769 49.7927 610.1 51.1343 609.979 52.6868C609.851 54.1542 609.521 55.7678 608.989 57.5274C608.451 59.2021 607.749 60.9767 606.885 62.8511C606.107 64.7181 605.409 66.5351 604.793 68.3022C603.637 71.744 602.586 75.3909 601.638 79.2428C600.775 83.0873 600.323 86.7246 600.28 90.1547C600.254 90.8422 600.314 91.5223 600.458 92.1949C600.603 92.8675 600.91 93.4403 601.38 93.9131C601.849 94.386 602.478 94.7165 603.265 94.9046C604.13 95.0002 605.228 94.8185 606.558 94.3595C607.889 93.9005 609.367 93.1715 610.993 92.1727C612.611 91.0889 614.183 89.9662 615.709 88.8048C617.235 87.6434 618.68 86.5319 620.043 85.4704C621.399 84.3239 622.522 83.4547 623.412 82.8628C624.946 81.7864 626.184 81.2498 627.126 81.253C628.069 81.2562 628.701 81.6292 629.023 82.3719C629.338 83.0297 629.331 83.9297 629.002 85.072C628.674 86.2143 628.002 87.3439 626.986 88.4607ZM697.587 68.664C696.401 69.7957 694.887 71.0846 693.043 72.5308C691.192 73.892 689.082 75.233 686.713 76.5538C684.337 77.7895 681.738 78.9164 678.914 79.9343C676.169 80.8598 673.269 81.499 670.216 81.8517C669.722 84.0364 668.726 86.3508 667.226 88.7948C665.812 91.2313 664.178 93.6014 662.323 95.9051C660.462 98.1238 658.539 100.134 656.555 101.935C654.563 103.651 652.794 104.962 651.245 105.869C648.467 107.397 645.52 108.468 642.404 109.083C639.373 109.691 636.457 109.646 633.655 108.949C630.945 108.33 628.509 106.915 626.345 104.706C624.267 102.49 622.833 99.3173 622.044 95.189C621.451 92.3285 621.458 88.9871 622.066 85.1649C622.666 81.2577 623.649 77.3171 625.015 73.3429C626.458 69.2763 628.128 65.3612 630.026 61.5975C632.002 57.7413 634.068 54.4339 636.225 51.6754C638.46 48.8245 640.676 46.7461 642.875 45.4401C645.151 44.0418 647.269 43.7708 649.228 44.6273C651.323 42.1313 653.673 40.598 656.278 40.0274C658.884 39.4568 661.526 39.3112 664.206 39.5907C667.064 39.9404 669.408 41.2771 671.239 43.6011C673.069 45.925 674.385 48.7224 675.185 51.9931C676.063 55.1713 676.445 58.5642 676.332 62.1718C676.212 65.6943 675.673 68.8253 674.713 71.5647C679.111 70.9229 682.842 69.9969 685.905 68.7866C689.054 67.5689 692.041 65.9798 694.868 64.0193C696.076 63.1427 696.989 62.8059 697.606 63.0088C698.301 63.1193 698.721 63.5109 698.866 64.1836C699.095 64.8488 699.077 65.6213 698.811 66.5011C698.546 67.3809 698.138 68.1019 697.587 68.664ZM663.125 61.0145C662.581 59.6915 661.697 58.3983 660.473 57.1349C659.249 55.8714 657.881 54.9204 656.369 54.2817C654.934 53.5506 653.456 53.2945 651.933 53.5134C650.495 53.7248 649.245 54.6052 648.181 56.1545C647.047 57.8812 646.782 59.7461 647.385 61.7491C647.982 63.6671 649.077 65.413 650.67 66.9867C652.349 68.553 654.339 69.7495 656.638 70.5763C658.938 71.403 661.301 71.496 663.729 70.8553C663.888 69.7278 664.018 68.7742 664.121 67.9942C664.225 67.2143 664.25 66.5267 664.198 65.9317C664.224 65.2442 664.122 64.5678 663.892 63.9026C663.74 63.145 663.485 62.1823 663.125 61.0145ZM660.431 83.0933C657.811 83.4938 655.235 83.4194 652.703 82.87C650.17 82.3206 647.825 81.4551 645.665 80.2735C643.506 79.0918 641.587 77.7179 639.908 76.1516C638.229 74.5853 636.976 72.9818 636.147 71.3411C635.796 72.2284 635.499 73.2394 635.256 74.3743C635.012 75.5092 634.776 76.729 634.548 78.0339C634.397 79.2463 634.289 80.4551 634.223 81.6601C634.149 82.78 634.15 83.7651 634.224 84.6152C634.447 87.1654 635.19 89.2848 636.451 90.9733C637.79 92.5693 639.389 93.7143 641.249 94.4082C643.101 95.0171 645.082 95.1436 647.192 94.7876C649.388 94.4243 651.446 93.4732 653.367 91.9346C654.73 90.8731 656.022 89.4752 657.24 87.7411C658.544 85.9995 659.608 84.4502 660.431 83.0933ZM776.958 76.1107C775.887 77.575 774.518 79.0653 772.852 80.5816C771.264 82.0055 769.59 83.4368 767.831 84.8755C766.065 86.2293 764.296 87.5405 762.522 88.8092C760.749 90.078 759.134 91.2043 757.678 92.1883C754.767 94.1562 752.054 95.4642 749.541 96.1124C747.121 96.8381 745.027 96.8928 743.26 96.2765C741.577 95.6527 740.311 94.393 739.46 92.4973C738.601 90.5166 738.289 87.9312 738.524 84.7413C738.789 81.8914 739.15 79.1616 739.607 76.5518C740.141 73.8496 740.711 71.0587 741.315 68.179C742.005 65.2919 742.683 62.2773 743.351 59.1352C744.103 55.9856 744.787 52.5423 745.402 48.8051C743.381 50.1811 741.22 51.9121 738.918 53.998C736.694 55.9914 734.446 58.2011 732.174 60.627C729.902 63.0529 727.642 65.6063 725.392 68.2872C723.143 70.9682 721.017 73.5954 719.015 76.169C717.098 78.7352 715.305 81.2477 713.635 83.7066C712.043 86.073 710.731 88.2008 709.697 90.0901C708.958 91.4396 708.092 92.8003 707.099 94.1721C706.183 95.4515 705.217 96.6496 704.201 97.7664C703.263 98.7907 702.306 99.6025 701.33 100.202C700.432 100.709 699.632 100.864 698.93 100.669C698.135 100.396 697.573 99.8453 697.243 99.0175C696.907 98.1047 696.69 97.0958 696.593 95.9907C696.489 94.8005 696.466 93.5605 696.525 92.2705C696.668 90.973 696.78 89.8068 696.861 88.7718C697.096 85.5819 697.477 82.5933 698.004 79.8061C698.609 76.9264 699.152 73.838 699.635 70.5407C699.021 71.3653 698.052 72.5209 696.726 74.0074C695.477 75.4016 694.105 76.8494 692.609 78.3508C691.19 79.7598 689.814 81.1651 688.48 82.5666C687.224 83.8758 686.243 84.9038 685.538 85.6508C684.515 86.6826 683.526 87.6257 682.573 88.48C681.62 89.3343 680.151 89.677 678.166 89.508C677.733 89.4602 677.41 89.1887 677.195 88.6935C676.973 88.1133 676.875 87.4795 676.9 86.792C676.833 86.0269 676.898 85.2932 677.093 84.5908C677.204 83.8958 677.453 83.3173 677.841 82.855C680.113 80.4291 682.761 77.4135 685.787 73.8081C688.812 70.2027 691.791 66.5585 694.724 62.8756C697.734 59.1001 700.504 55.5171 703.035 52.1263C705.65 48.7281 707.718 45.9346 709.24 43.7456C710.381 42.1039 711.389 40.9021 712.265 40.1402C713.218 39.2859 714.066 38.6978 714.809 38.3758C715.637 38.0464 716.394 37.8945 717.082 37.92C717.762 37.8605 718.442 37.801 719.122 37.7415C719.81 37.767 720.318 38.1936 720.647 39.0214C720.969 39.7642 721.14 40.7343 721.159 41.9319C721.256 43.037 721.229 44.1958 721.078 45.4082C721.004 46.5282 720.874 47.4819 720.686 48.2693C720.018 51.4114 719.199 54.7809 718.229 58.3778C717.259 61.9747 716.677 65.1094 716.482 67.7819C718.617 64.7683 721.038 61.6013 723.746 58.2806C726.531 54.8676 729.366 51.5358 732.251 48.2853C735.221 45.0274 738.21 41.982 741.217 39.1491C744.302 36.2238 747.254 33.7384 750.073 31.6929C751.761 30.4316 753.567 30.0167 755.489 30.4481C757.404 30.7946 759.101 31.5884 760.58 32.8295C761.966 33.9931 762.671 35.6874 762.695 37.9125C762.796 40.0452 762.588 42.0763 762.071 44.006C761.367 46.7231 760.581 49.4901 759.714 52.3071C758.847 55.124 758.026 57.9798 757.251 60.8743C756.469 63.6838 755.861 66.521 755.426 69.3858C754.984 72.1655 754.882 74.9156 755.12 77.6358C755.232 78.911 755.805 79.5889 756.84 79.6697C757.96 79.743 759.301 79.4115 760.865 78.6751C762.513 77.9313 764.347 76.8714 766.368 75.4953C768.389 74.1193 770.442 72.612 772.526 70.9735C774.199 69.5422 775.55 68.8244 776.577 68.8202C777.597 68.7309 778.269 69.0577 778.59 69.8004C778.905 70.4582 778.902 71.4007 778.581 72.628C778.338 73.7629 777.797 74.9238 776.958 76.1107Z" fill="white"/>
</svg>
